<?xml version="1.0" encoding="utf-8"?>
<svg width="121px" height="45px" viewBox="0 0 121 45" fill="none" xmlns="http://www.w3.org/2000/svg">
  <g transform="matrix(1, 0, 0, 1, -38.916664, -16.833332)">
    <rect x="40" y="18.0508" width="118.892" height="42.4616" rx="4" style="fill: rgb(255, 255, 255);"/>
  </g>
  <path d="M 27.237 22.941 C 27.255 21.513 28.022 20.163 29.238 19.415 C 28.471 18.319 27.186 17.624 25.849 17.583 C 24.423 17.433 23.04 18.436 22.314 18.436 C 21.573 18.436 20.454 17.597 19.249 17.622 C 17.679 17.673 16.215 18.566 15.451 19.939 C 13.808 22.782 15.033 26.961 16.607 29.26 C 17.394 30.386 18.314 31.643 19.517 31.598 C 20.695 31.549 21.135 30.847 22.557 30.847 C 23.966 30.847 24.379 31.598 25.607 31.57 C 26.871 31.549 27.667 30.439 28.427 29.303 C 28.992 28.501 29.427 27.615 29.716 26.677 C 28.231 26.049 27.239 24.554 27.237 22.941 Z" fill="#2399F8"/>
  <path d="M 24.917 16.071 C 25.606 15.244 25.946 14.18 25.864 13.107 C 24.811 13.217 23.838 13.72 23.14 14.516 C 22.457 15.293 22.101 16.338 22.168 17.371 C 23.222 17.381 24.257 16.892 24.917 16.071 Z" fill="#2399F8"/>
  <path d="M 36.641 19.051 L 38.654 19.051 C 40.539 19.051 41.881 17.837 41.881 16.13 C 41.881 14.423 40.539 13.217 38.654 13.217 L 36.641 13.217 L 36.641 19.051 Z M 37.499 18.27 L 37.499 13.998 L 38.705 13.998 C 40.055 13.998 40.997 14.881 40.997 16.13 C 40.997 17.387 40.055 18.27 38.705 18.27 L 37.499 18.27 Z" fill="#2399F8"/>
  <path d="M 45.063 19.153 C 46.311 19.153 47.364 18.1 47.364 16.852 C 47.364 15.603 46.311 14.559 45.063 14.559 C 43.806 14.559 42.744 15.603 42.744 16.852 C 42.744 18.1 43.806 19.153 45.063 19.153 Z M 45.063 18.423 C 44.256 18.423 43.585 17.709 43.585 16.852 C 43.585 16.002 44.256 15.289 45.063 15.289 C 45.853 15.289 46.524 16.002 46.524 16.852 C 46.524 17.709 45.853 18.423 45.063 18.423 Z" fill="#2399F8"/>
  <path d="M 49.278 19.051 L 50.051 19.051 L 51.112 15.79 L 52.165 19.051 L 52.938 19.051 L 54.416 14.66 L 53.558 14.66 L 52.556 17.93 L 51.469 14.66 L 50.756 14.66 L 49.669 17.93 L 48.658 14.66 L 47.8 14.66 L 49.278 19.051 Z" fill="#2399F8"/>
  <path d="M 57.498 14.559 C 56.904 14.559 56.369 14.864 56.105 15.297 L 56.105 14.66 L 55.265 14.66 L 55.265 19.051 L 56.105 19.051 L 56.105 16.206 C 56.173 15.688 56.7 15.289 57.311 15.289 C 57.906 15.289 58.322 15.748 58.322 16.401 L 58.322 19.051 L 59.146 19.051 L 59.146 16.257 C 59.146 15.263 58.466 14.559 57.498 14.559 Z" fill="#2399F8"/>
  <path d="M 60.348 19.051 L 61.18 19.051 L 61.18 13.115 L 60.348 13.115 L 60.348 19.051 Z" fill="#2399F8"/>
  <path d="M 64.485 19.153 C 65.734 19.153 66.787 18.1 66.787 16.852 C 66.787 15.603 65.734 14.559 64.485 14.559 C 63.228 14.559 62.167 15.603 62.167 16.852 C 62.167 18.1 63.228 19.153 64.485 19.153 Z M 64.485 18.423 C 63.679 18.423 63.008 17.709 63.008 16.852 C 63.008 16.002 63.679 15.289 64.485 15.289 C 65.275 15.289 65.946 16.002 65.946 16.852 C 65.946 17.709 65.275 18.423 64.485 18.423 Z" fill="#2399F8"/>
  <path d="M 69.613 14.559 C 69.129 14.559 68.577 14.686 67.949 15 L 68.255 15.62 C 68.637 15.425 69.061 15.255 69.494 15.255 C 70.369 15.255 70.624 15.841 70.624 16.393 L 70.624 16.529 C 70.199 16.384 69.732 16.291 69.299 16.291 C 68.331 16.291 67.541 16.877 67.541 17.752 C 67.541 18.609 68.229 19.153 69.163 19.153 C 69.698 19.153 70.301 18.907 70.624 18.448 L 70.624 19.051 L 71.448 19.051 L 71.448 16.393 C 71.448 15.306 70.794 14.559 69.613 14.559 Z M 69.325 18.491 C 68.773 18.491 68.348 18.202 68.348 17.726 C 68.348 17.251 68.841 16.919 69.426 16.919 C 69.86 16.919 70.267 16.979 70.624 17.089 L 70.624 17.675 C 70.48 18.219 69.868 18.491 69.325 18.491 Z" fill="#2399F8"/>
  <path d="M 76.043 13.115 L 76.043 15.416 C 75.704 14.881 75.16 14.559 74.481 14.559 C 73.326 14.559 72.46 15.51 72.46 16.852 C 72.46 18.202 73.326 19.153 74.481 19.153 C 75.16 19.153 75.704 18.83 76.043 18.287 L 76.043 19.051 L 76.876 19.051 L 76.876 13.115 L 76.043 13.115 Z M 74.685 18.423 C 73.878 18.423 73.309 17.769 73.309 16.852 C 73.309 15.934 73.878 15.289 74.685 15.289 C 75.474 15.289 76.043 15.934 76.043 16.852 C 76.043 17.769 75.474 18.423 74.685 18.423 Z" fill="#2399F8"/>
  <path d="M 82.648 19.153 C 83.896 19.153 84.949 18.1 84.949 16.852 C 84.949 15.603 83.896 14.559 82.648 14.559 C 81.391 14.559 80.329 15.603 80.329 16.852 C 80.329 18.1 81.391 19.153 82.648 19.153 Z M 82.648 18.423 C 81.841 18.423 81.17 17.709 81.17 16.852 C 81.17 16.002 81.841 15.289 82.648 15.289 C 83.437 15.289 84.108 16.002 84.108 16.852 C 84.108 17.709 83.437 18.423 82.648 18.423 Z" fill="#2399F8"/>
  <path d="M 88.166 14.559 C 87.572 14.559 87.037 14.864 86.773 15.297 L 86.773 14.66 L 85.933 14.66 L 85.933 19.051 L 86.773 19.051 L 86.773 16.206 C 86.841 15.688 87.368 15.289 87.979 15.289 C 88.574 15.289 88.99 15.748 88.99 16.401 L 88.99 19.051 L 89.814 19.051 L 89.814 16.257 C 89.814 15.263 89.134 14.559 88.166 14.559 Z" fill="#2399F8"/>
  <path d="M 95.502 18.261 C 95.408 18.355 95.238 18.423 95.052 18.423 C 94.805 18.423 94.601 18.202 94.601 17.896 L 94.601 15.374 L 95.637 15.374 L 95.637 14.66 L 94.601 14.66 L 94.601 13.455 L 93.778 13.455 L 93.778 14.66 L 93.115 14.66 L 93.115 15.374 L 93.778 15.374 L 93.778 17.956 C 93.778 18.66 94.253 19.153 94.933 19.153 C 95.247 19.153 95.57 19.034 95.807 18.839 L 95.502 18.261 Z" fill="#2399F8"/>
  <path d="M 98.898 14.559 C 98.295 14.559 97.76 14.873 97.496 15.314 L 97.496 13.115 L 96.664 13.115 L 96.664 19.051 L 97.496 19.051 L 97.496 16.325 C 97.496 15.756 98.048 15.289 98.711 15.289 C 99.305 15.289 99.721 15.748 99.721 16.401 L 99.721 19.051 L 100.545 19.051 L 100.545 16.257 C 100.545 15.263 99.866 14.559 98.898 14.559 Z" fill="#2399F8"/>
  <path d="M 103.761 18.406 C 103.005 18.406 102.47 17.879 102.359 17.149 L 105.816 17.149 C 105.816 15.578 105.043 14.559 103.701 14.559 C 102.487 14.559 101.51 15.527 101.51 16.843 C 101.51 18.193 102.546 19.153 103.769 19.153 C 104.389 19.153 105.153 18.89 105.544 18.474 L 105.018 17.93 C 104.754 18.202 104.219 18.406 103.761 18.406 Z M 103.735 15.306 C 104.491 15.306 104.907 15.798 105.001 16.478 L 102.368 16.478 C 102.504 15.764 103.056 15.306 103.735 15.306 Z" fill="#2399F8"/>
  <path d="M 42.703 30.091 L 44.676 30.091 L 41.347 21.923 L 39.386 21.923 L 36.057 30.091 L 38.018 30.091 L 38.541 28.807 L 42.18 28.807 L 42.703 30.091 Z M 39.148 27.321 L 40.361 24.337 L 41.573 27.321 L 39.148 27.321 Z" fill="#2399F8"/>
  <path d="M 49.384 23.802 C 48.528 23.802 47.815 24.17 47.327 24.8 L 47.327 23.944 L 45.592 23.944 L 45.592 32.136 L 47.327 32.136 L 47.327 29.223 C 47.815 29.865 48.528 30.234 49.384 30.234 C 51.025 30.234 52.214 28.902 52.214 27.012 C 52.214 25.133 51.025 23.802 49.384 23.802 Z M 48.885 28.771 C 48.041 28.771 47.422 28.153 47.327 27.249 L 47.327 26.774 C 47.422 25.882 48.041 25.264 48.885 25.264 C 49.848 25.264 50.526 25.989 50.526 27.012 C 50.526 28.046 49.848 28.771 48.885 28.771 Z" fill="#2399F8"/>
  <path d="M 57.233 23.802 C 56.377 23.802 55.664 24.17 55.176 24.8 L 55.176 23.944 L 53.44 23.944 L 53.44 32.136 L 55.176 32.136 L 55.176 29.223 C 55.664 29.865 56.377 30.234 57.233 30.234 C 58.874 30.234 60.063 28.902 60.063 27.012 C 60.063 25.133 58.874 23.802 57.233 23.802 Z M 56.734 28.771 C 55.889 28.771 55.271 28.153 55.176 27.249 L 55.176 26.774 C 55.271 25.882 55.889 25.264 56.734 25.264 C 57.697 25.264 58.374 25.989 58.374 27.012 C 58.374 28.046 57.697 28.771 56.734 28.771 Z" fill="#2399F8"/>
  <path d="M 67.748 30.234 C 69.745 30.234 70.922 29.199 70.922 27.642 C 70.922 26.132 69.757 25.609 67.998 25.216 C 66.737 24.931 66.25 24.741 66.25 24.146 C 66.25 23.659 66.702 23.267 67.451 23.267 C 68.236 23.267 69.056 23.588 69.781 24.17 L 70.697 22.91 C 69.864 22.197 68.83 21.78 67.498 21.78 C 65.715 21.78 64.479 22.815 64.479 24.325 C 64.479 25.906 65.703 26.393 67.427 26.786 C 68.675 27.071 69.151 27.249 69.151 27.832 C 69.151 28.343 68.699 28.748 67.819 28.748 C 66.785 28.748 65.905 28.343 65.132 27.678 L 64.122 28.878 C 65.073 29.758 66.333 30.234 67.748 30.234 Z" fill="#2399F8"/>
  <path d="M 75.367 28.569 C 75.248 28.688 75.01 28.771 74.772 28.771 C 74.451 28.771 74.19 28.486 74.19 28.082 L 74.19 25.347 L 75.521 25.347 L 75.521 23.944 L 74.19 23.944 L 74.19 22.256 L 72.525 22.256 L 72.525 23.944 L 71.681 23.944 L 71.681 25.347 L 72.525 25.347 L 72.525 28.355 C 72.525 29.461 73.286 30.234 74.368 30.234 C 74.867 30.234 75.426 30.02 75.783 29.699 L 75.367 28.569 Z" fill="#2399F8"/>
  <path d="M 79.89 30.234 C 81.709 30.234 83.231 28.759 83.231 27.012 C 83.231 25.264 81.709 23.802 79.89 23.802 C 78.059 23.802 76.525 25.264 76.525 27.012 C 76.525 28.759 78.059 30.234 79.89 30.234 Z M 79.89 28.771 C 78.963 28.771 78.19 27.963 78.19 27.012 C 78.19 26.061 78.963 25.264 79.89 25.264 C 80.805 25.264 81.578 26.061 81.578 27.012 C 81.578 27.963 80.805 28.771 79.89 28.771 Z" fill="#2399F8"/>
  <path d="M 86.141 25.086 L 86.141 23.944 L 84.405 23.944 L 84.405 30.091 L 86.141 30.091 L 86.141 27.154 C 86.141 26.001 86.962 25.264 88.246 25.264 L 88.246 23.802 C 87.306 23.802 86.545 24.289 86.141 25.086 Z" fill="#2399F8"/>
  <path d="M 92.148 28.7 C 91.423 28.7 90.888 28.248 90.686 27.582 L 95.12 27.582 C 95.12 25.264 93.991 23.802 92.065 23.802 C 90.269 23.802 88.902 25.145 88.902 27 C 88.902 28.89 90.329 30.234 92.16 30.234 C 93.063 30.234 94.122 29.853 94.668 29.283 L 93.563 28.153 C 93.23 28.474 92.635 28.7 92.148 28.7 Z M 92.136 25.335 C 92.837 25.335 93.289 25.728 93.456 26.334 L 90.709 26.334 C 90.935 25.716 91.482 25.335 92.136 25.335 Z" fill="#2399F8"/>
</svg>