<svg width="39" height="27" viewBox="0 0 39 27" fill="none" xmlns="http://www.w3.org/2000/svg">
    <g clip-path="url(#clip0_1112_2841)">
        <path d="M22.2722 17.7223C22.2722 17.0825 22.2722 16.4427 22.2722 15.8029C22.2722 15.6536 22.2282 15.5896 22.0961 15.5043C21.0397 14.9711 19.9392 14.7152 18.7507 14.9072C18.0685 15.0138 17.4522 15.2271 16.836 15.547C16.7039 15.611 16.7039 15.7176 16.7039 15.8242C16.7039 16.8479 16.7039 17.8929 16.7039 18.9166C16.7039 22.5636 14.1509 25.7839 10.4974 26.7223C6.7118 27.7034 2.77218 26.0185 0.967443 22.6702C0.153108 21.156 -0.155018 19.5565 0.0650723 17.8503C0.197126 16.8693 0.57128 15.9522 0.967443 15.0351C2.19995 12.1986 3.41045 9.36215 4.62094 6.52565C5.08313 5.43798 5.52331 4.32897 6.02952 3.26262C6.79984 1.59911 8.12038 0.532764 9.96914 0.127551C12.8743 -0.490933 15.7795 1.23656 16.5058 4.05172C16.6159 4.47826 16.6819 4.92613 16.6819 5.374C16.7039 6.35504 16.6819 7.35741 16.6819 8.33845C16.6819 8.59437 16.6819 8.59437 16.946 8.50907C18.2886 8.10385 19.6311 7.97589 21.0177 8.27447C21.3478 8.33845 21.7 8.42376 22.0301 8.53039C22.2502 8.59437 22.2722 8.59437 22.2722 8.3811C22.2722 7.5067 22.2722 6.65362 22.2722 5.77921C22.2502 4.9048 22.3602 4.03039 22.7344 3.24129C23.4827 1.64177 24.7372 0.596745 26.4759 0.170205C29.205 -0.51226 31.9562 0.895323 33.0126 3.41191C33.7389 5.16073 34.5092 6.88821 35.2355 8.6157C36.2919 11.0683 37.3484 13.5209 38.4048 15.9948C38.977 17.3598 39.1311 18.81 38.845 20.2602C38.2507 23.2247 36.512 25.3574 33.6068 26.4238C30.4595 27.5754 27.5544 26.9996 25.0233 24.8669C23.6147 23.6726 22.7344 22.137 22.4262 20.3456C22.2722 19.4925 22.2942 18.6181 22.2282 17.7437C22.2502 17.7223 22.2502 17.7223 22.2722 17.7223ZM13.9088 18.8953C13.9088 15.8882 11.4217 13.4783 8.34047 13.4996C5.2592 13.4996 2.77218 15.9095 2.77218 18.9166C2.77218 21.9238 5.28121 24.3124 8.4065 24.3124C11.4217 24.2911 13.9308 21.8384 13.9088 18.8953ZM36.1819 18.9166C36.2039 15.9309 33.7169 13.4996 30.6356 13.4996C27.5984 13.4783 25.0893 15.8882 25.0453 18.81C25.0013 21.7318 27.4223 24.2697 30.5476 24.3124C33.6729 24.3124 36.1819 21.9024 36.1819 18.9166Z" fill="#2B2A29"/>
        <path d="M12.567 18.789C12.567 19.4501 12.1268 19.962 11.6206 20.1539C11.0484 20.3459 10.4321 20.1752 10.0579 19.706C9.88187 19.4928 9.77183 19.2368 9.77183 18.9596C9.74982 18.5757 9.66178 18.2132 9.35366 17.9359C9.11156 17.7013 8.82544 17.552 8.4733 17.552C8.03312 17.5307 7.61495 17.4241 7.30682 17.0828C6.95467 16.6776 6.86664 16.2084 7.06472 15.7179C7.30682 15.1634 7.747 14.8648 8.36325 14.8648C10.3441 14.8648 11.9507 16.2084 12.3909 17.8932C12.4569 18.1918 12.5009 18.4904 12.567 18.789Z" fill="#2B2A29"/>
        <path d="M34.7964 18.7465C34.8624 19.6636 34.0701 20.2607 33.3438 20.2181C32.6395 20.1967 32.0453 19.6209 32.0233 18.9384C32.0012 18.2986 31.7151 17.8508 31.1209 17.6162C30.9668 17.5522 30.7687 17.5308 30.5927 17.5308C29.5803 17.4455 28.942 16.5072 29.3382 15.6541C29.5803 15.1422 30.0204 14.865 30.5927 14.8436C32.5515 14.801 34.3782 16.2726 34.7084 18.1493C34.7524 18.3413 34.7744 18.5545 34.7964 18.7465Z" fill="#2B2A29"/>
    </g>
    <defs>
        <clipPath id="clip0_1112_2841">
            <rect width="39" height="27" fill="white"/>
        </clipPath>
    </defs>
</svg>
