<svg width="18" height="18" viewBox="0 0 18 18" fill="none" xmlns="http://www.w3.org/2000/svg">
    <g clip-path="url(#clip0_1839_2950)">
        <path d="M14.2477 12.6686C15.1586 12.4837 15.9683 11.9668 16.5196 11.2184C17.0709 10.4701 17.3244 9.54355 17.231 8.61875C17.1376 7.69395 16.7039 6.83685 16.0141 6.21383C15.3243 5.59082 14.4276 5.24634 13.4981 5.24728H12.5535C12.3052 4.28574 11.8219 3.40093 11.1472 2.67229C10.4724 1.94364 9.62722 1.39397 8.68755 1.07263C7.74789 0.751288 6.74312 0.668331 5.76348 0.831208C4.78383 0.994085 3.85997 1.3977 3.07483 2.00581C2.28969 2.61391 1.66786 3.40749 1.26517 4.31527C0.862471 5.22305 0.691516 6.21663 0.767651 7.20681C0.843786 8.19698 1.16463 9.15274 1.70137 9.98829C2.23811 10.8238 2.97395 11.513 3.84282 11.994" stroke="#2399F8" stroke-linecap="round" stroke-linejoin="round"/>
        <path d="M9.75 8.25L6.75 12.75H11.25L8.25 17.25" stroke="#2399F8" stroke-linecap="round" stroke-linejoin="round"/>
    </g>
    <defs>
        <clipPath id="clip0_1839_2950">
            <rect width="18" height="18" fill="white"/>
        </clipPath>
    </defs>
</svg>
