<svg width="18" height="18" viewBox="0 0 18 18" fill="none" xmlns="http://www.w3.org/2000/svg">
    <path d="M12.5556 7.5H13.5006C14.4951 7.5 15.449 7.89509 16.1522 8.59835C16.8555 9.30161 17.2506 10.2554 17.2506 11.25C17.2506 12.2446 16.8555 13.1984 16.1522 13.9017C15.449 14.6049 14.4951 15 13.5006 15H6.75057C5.62818 15.0008 4.52806 14.6868 3.57521 14.0937C2.62236 13.5005 1.85499 12.652 1.3603 11.6445C0.865614 10.637 0.663439 9.51092 0.776752 8.39427C0.890064 7.27761 1.31432 6.21512 2.00131 5.32754C2.6883 4.43995 3.61048 3.76286 4.66306 3.37319C5.71564 2.98353 6.85642 2.89692 7.95576 3.12321C9.05511 3.34949 10.0689 3.8796 10.8821 4.6533C11.6952 5.42699 12.275 6.41325 12.5556 7.5Z" stroke="#2399F8" stroke-linecap="round" stroke-linejoin="round"/>
</svg>
