<svg width="10" height="10" viewBox="0 0 10 10" fill="none" xmlns="http://www.w3.org/2000/svg">
    <path d="M4.99923 5.54997C5.30422 5.54997 5.54923 5.30247 5.54923 4.99996C5.54923 4.69745 5.30424 4.44995 4.99923 4.44995C4.69672 4.44995 4.44922 4.69745 4.44922 4.99996C4.44922 5.30247 4.69674 5.54997 4.99923 5.54997Z" fill="#EF7A56"/>
    <path d="M5 0C2.23751 0 0 2.23751 0 5C0 7.76 2.23751 10 5 10C7.76249 10 10 7.76 10 5C10 2.23751 7.76251 0 5 0ZM6.095 6.095L2 8L3.905 3.905L8 2L6.095 6.095Z" fill="#EF7A56"/>
</svg>
