<svg width="22" height="23" viewBox="0 0 22 23" fill="none" xmlns="http://www.w3.org/2000/svg">
<g clip-path="url(#clip0)">
<path d="M21.4107 6.63036C20.806 6.63036 20.5225 6.37045 20.1636 6.04139C19.7639 5.67479 19.3107 5.25928 18.4202 5.25928C17.5298 5.25928 17.0766 5.67479 16.6768 6.04139C16.318 6.37045 16.0346 6.63036 15.4298 6.63036C14.8251 6.63036 14.5417 6.37045 14.1829 6.04139C13.7831 5.67479 13.33 5.25928 12.4395 5.25928C11.549 5.25928 11.0959 5.67479 10.6961 6.04143C10.3373 6.37049 10.0539 6.63036 9.44921 6.63036C8.84458 6.63036 8.56118 6.37045 8.20237 6.04143C7.80259 5.67483 7.3495 5.25928 6.45906 5.25928C5.56862 5.25928 5.11553 5.67479 4.71571 6.04139C4.35695 6.37045 4.0735 6.63036 3.46883 6.63036C2.86416 6.63036 2.58072 6.37045 2.22191 6.04139C1.82209 5.67483 1.369 5.25928 0.478558 5.25928C0.275689 5.25928 0.111328 5.42372 0.111328 5.62651C0.111328 5.82929 0.275689 5.99374 0.478558 5.99374C1.08323 5.99374 1.36667 6.25365 1.72544 6.58267C2.12521 6.94926 2.57835 7.36482 3.46883 7.36482C4.35927 7.36482 4.81237 6.94931 5.21218 6.58275C5.57095 6.25369 5.85439 5.99378 6.45906 5.99378C7.06369 5.99378 7.34709 6.25369 7.7059 6.58271C8.10567 6.94931 8.55876 7.36486 9.44921 7.36486C10.3396 7.36486 10.7927 6.94939 11.1926 6.5828C11.5514 6.25374 11.8348 5.99382 12.4395 5.99382C13.0442 5.99382 13.3276 6.25374 13.6864 6.58275C14.0862 6.94935 14.5394 7.3649 15.4298 7.3649C16.3202 7.3649 16.7734 6.94943 17.1732 6.58284C17.5321 6.25378 17.8155 5.99386 18.4202 5.99386C19.025 5.99386 19.3084 6.25378 19.6673 6.58284C20.0671 6.94943 20.5202 7.3649 21.4107 7.3649C21.6135 7.3649 21.7779 7.20046 21.7779 6.99767C21.778 6.7948 21.6135 6.63036 21.4107 6.63036Z" fill="black"/>
<path d="M21.4111 10.0889C20.8064 10.0889 20.5229 9.82894 20.1641 9.49988C19.7643 9.13329 19.3112 8.71777 18.4207 8.71777C17.5302 8.71777 17.0771 9.13329 16.6772 9.49988C16.3184 9.82894 16.035 10.0889 15.4303 10.0889C14.8256 10.0889 14.5421 9.82894 14.1833 9.49988C13.7835 9.13329 13.3304 8.71777 12.4399 8.71777C11.5494 8.71777 11.0963 9.13329 10.6965 9.49993C10.3378 9.82898 10.0543 10.0889 9.44964 10.0889C8.84501 10.0889 8.56166 9.82894 8.2028 9.49993C8.15698 9.4579 8.11119 9.41588 8.06472 9.37445C7.91331 9.23946 7.68116 9.25288 7.54621 9.4042C7.41126 9.55561 7.42463 9.78777 7.576 9.92272C7.61988 9.96182 7.66313 10.0015 7.70638 10.0412C8.10615 10.4077 8.55924 10.8232 9.44964 10.8232C10.3401 10.8232 10.7932 10.4078 11.193 10.0412C11.5518 9.7121 11.8352 9.45219 12.4399 9.45219C13.0446 9.45219 13.328 9.7121 13.6868 10.0411C14.0867 10.4077 14.5398 10.8233 15.4302 10.8233C16.3207 10.8233 16.7738 10.4078 17.1736 10.0412C17.5325 9.71215 17.8159 9.45223 18.4207 9.45223C19.0254 9.45223 19.3089 9.71215 19.6677 10.0412C20.0675 10.4078 20.5206 10.8233 21.4111 10.8233C21.614 10.8233 21.7783 10.6588 21.7783 10.456C21.7783 10.2533 21.6139 10.0889 21.4111 10.0889Z" fill="black"/>
<path d="M6.98261 8.77287C6.8191 8.73635 6.64293 8.71777 6.45906 8.71777C5.56862 8.71777 5.11553 9.13329 4.71571 9.49984C4.35695 9.8289 4.0735 10.0888 3.46883 10.0888C2.86416 10.0888 2.58072 9.8289 2.22191 9.49984C1.82213 9.13325 1.369 8.71777 0.478558 8.71777C0.275689 8.71777 0.111328 8.88222 0.111328 9.085C0.111328 9.28779 0.275689 9.45232 0.478558 9.45232C1.08323 9.45232 1.36667 9.71223 1.72544 10.0412C2.12521 10.4078 2.57835 10.8234 3.46883 10.8234C4.35927 10.8234 4.81237 10.4079 5.21218 10.0413C5.57095 9.71223 5.85439 9.45232 6.45906 9.45232C6.59101 9.45232 6.70988 9.46455 6.82244 9.48968C7.02023 9.53386 7.21671 9.40932 7.26093 9.21136C7.30515 9.0134 7.18053 8.81709 6.98261 8.77287Z" fill="black"/>
<path d="M21.4106 17.0058C20.8059 17.0058 20.5224 16.7459 20.1636 16.4168C19.7638 16.0502 19.3107 15.6348 18.4202 15.6348C17.5297 15.6348 17.0766 16.0503 16.6768 16.4168C16.318 16.7459 16.0345 17.0058 15.4298 17.0058C14.8251 17.0058 14.5416 16.7459 14.1828 16.4168C13.783 16.0502 13.33 15.6348 12.4394 15.6348C11.5489 15.6348 11.0959 16.0503 10.6961 16.4169C10.3373 16.746 10.0538 17.0059 9.44917 17.0059C8.84454 17.0059 8.56114 16.7459 8.20233 16.4169C7.80256 16.0503 7.34946 15.6348 6.45902 15.6348C5.56858 15.6348 5.11549 16.0503 4.71567 16.4168C4.35691 16.7459 4.07347 17.0058 3.46879 17.0058C3.26592 17.0058 3.10156 17.1703 3.10156 17.373C3.10156 17.5759 3.26592 17.7403 3.46879 17.7403C4.35923 17.7403 4.81233 17.3248 5.21214 16.9582C5.57091 16.6291 5.85435 16.3692 6.45902 16.3692C7.06365 16.3692 7.34705 16.6291 7.70586 16.9582C8.10563 17.3248 8.55873 17.7403 9.44917 17.7403C10.3396 17.7403 10.7927 17.3248 11.1925 16.9582C11.5513 16.6292 11.8348 16.3693 12.4394 16.3693C13.0441 16.3693 13.3276 16.6292 13.6864 16.9582C14.0862 17.3248 14.5393 17.7403 15.4298 17.7403C16.3202 17.7403 16.7733 17.3248 17.1731 16.9582C17.532 16.6292 17.8154 16.3693 18.4202 16.3693C19.0249 16.3693 19.3084 16.6292 19.6672 16.9582C20.067 17.3248 20.5202 17.7403 21.4106 17.7403C21.6135 17.7403 21.7779 17.5759 21.7779 17.3731C21.7779 17.1703 21.6135 17.0058 21.4106 17.0058Z" fill="black"/>
<path d="M2.6092 16.7436C2.47539 16.6493 2.35229 16.5364 2.22191 16.4169C1.82213 16.0503 1.369 15.6348 0.478558 15.6348C0.275689 15.6348 0.111328 15.7992 0.111328 16.002C0.111328 16.2048 0.275689 16.3692 0.478558 16.3692C1.08323 16.3692 1.36667 16.6291 1.72548 16.9582C1.86725 17.0882 2.01375 17.2225 2.18623 17.344C2.25051 17.3893 2.32427 17.411 2.3974 17.411C2.5128 17.411 2.6265 17.3568 2.69802 17.2552C2.81477 17.0894 2.775 16.8604 2.6092 16.7436Z" fill="black"/>
<path d="M21.4095 13.5473C20.8048 13.5473 20.5213 13.2874 20.1625 12.9583C19.7627 12.5917 19.3096 12.1763 18.4191 12.1763C17.5287 12.1763 17.0756 12.5917 16.6757 12.9583C16.5262 13.0954 16.5161 13.3276 16.6532 13.4772C16.7903 13.6267 17.0225 13.6367 17.1721 13.4997C17.5309 13.1706 17.8144 12.9107 18.4191 12.9107C19.0238 12.9107 19.3073 13.1706 19.6661 13.4997C20.0659 13.8663 20.5191 14.2818 21.4095 14.2818C21.6124 14.2818 21.7768 14.1173 21.7768 13.9145C21.7768 13.7117 21.6124 13.5473 21.4095 13.5473Z" fill="black"/>
<path d="M16.282 13.7644C16.2316 13.5679 16.0317 13.4496 15.8349 13.5C15.7108 13.5318 15.5782 13.5474 15.4298 13.5474C14.8251 13.5474 14.5417 13.2874 14.1828 12.9584C13.7831 12.5918 13.33 12.1763 12.4395 12.1763C11.549 12.1763 11.0959 12.5918 10.6961 12.9584C10.3373 13.2875 10.0539 13.5474 9.44921 13.5474C8.84458 13.5474 8.56118 13.2874 8.20237 12.9584C7.8026 12.5918 7.3495 12.1763 6.45906 12.1763C5.56862 12.1763 5.11553 12.5918 4.71571 12.9584C4.35695 13.2874 4.0735 13.5474 3.46883 13.5474C2.86416 13.5474 2.58072 13.2874 2.22191 12.9584C1.82213 12.5918 1.369 12.1763 0.478558 12.1763C0.275689 12.1763 0.111328 12.3407 0.111328 12.5435C0.111328 12.7463 0.275773 12.9107 0.478643 12.9107C1.08332 12.9107 1.36676 13.1706 1.72552 13.4996C2.1253 13.8662 2.57843 14.2818 3.46892 14.2818C4.35936 14.2818 4.81245 13.8663 5.21226 13.4997C5.57103 13.1706 5.85447 12.9107 6.45915 12.9107C7.06378 12.9107 7.34718 13.1706 7.70599 13.4997C8.10576 13.8662 8.55885 14.2817 9.44929 14.2817C10.3397 14.2817 10.7928 13.8663 11.1926 13.4997C11.5514 13.1706 11.8349 12.9107 12.4396 12.9107C13.0442 12.9107 13.3277 13.1706 13.6865 13.4997C14.0863 13.8662 14.5394 14.2817 15.4299 14.2817C15.6378 14.2817 15.8356 14.258 16.0177 14.2113C16.2141 14.161 16.3324 13.9607 16.282 13.7644Z" fill="black"/>
</g>
<defs>
<clipPath id="clip0">
<!--<rect x="0.111328" y="0.666504" width="21.6667" height="21.6667" fill="white"/>-->
<rect x="0.111328" y="0.666504" width="21.6667" height="21.6667" fill="#4CAEFD"/>
</clipPath>
</defs>
</svg>
