<svg width="24" height="24" viewBox="0 0 24 24" fill="none" xmlns="http://www.w3.org/2000/svg">
<g clip-path="url(#clip0_575_765)">
<path fill-rule="evenodd" clip-rule="evenodd" d="M23.7748 12.1122C23.7748 18.6463 18.4779 23.9432 11.9438 23.9432C5.40971 23.9432 0.112793 18.6463 0.112793 12.1122C0.112793 5.57816 5.40971 0.28125 11.9438 0.28125C18.4779 0.28125 23.7748 5.57816 23.7748 12.1122ZM12.3677 9.01532C11.217 9.49395 8.91714 10.4846 5.46817 11.9873C4.90811 12.21 4.61473 12.4279 4.58802 12.6409C4.54288 13.0009 4.99377 13.1427 5.60775 13.3358C5.69127 13.3621 5.77781 13.3893 5.86652 13.4181C6.47059 13.6145 7.28317 13.8442 7.7056 13.8533C8.08878 13.8616 8.51646 13.7036 8.98862 13.3794C12.2111 11.2041 13.8746 10.1046 13.979 10.0809C14.0527 10.0642 14.1548 10.0432 14.224 10.1047C14.2931 10.1662 14.2863 10.2826 14.279 10.3138C14.2343 10.5043 12.4645 12.1497 11.5485 13.0012C11.263 13.2667 11.0605 13.455 11.0191 13.498C10.9263 13.5943 10.8318 13.6854 10.7409 13.773C10.1797 14.314 9.75889 14.7197 10.7642 15.3822C11.2473 15.7006 11.6339 15.9639 12.0196 16.2265C12.4408 16.5133 12.8609 16.7994 13.4045 17.1558C13.543 17.2465 13.6753 17.3408 13.8041 17.4327C14.2943 17.7821 14.7346 18.0961 15.2787 18.046C15.5949 18.0169 15.9214 17.7197 16.0872 16.8331C16.4792 14.7378 17.2496 10.198 17.4276 8.3272C17.4432 8.16329 17.4236 7.95353 17.4079 7.86145C17.3921 7.76937 17.3592 7.63817 17.2395 7.54105C17.0977 7.42603 16.8789 7.40178 16.781 7.4035C16.336 7.41134 15.6533 7.64873 12.3677 9.01532Z" fill="white"/>
</g>
<defs>
<clipPath id="clip0_575_765">
<rect width="23.662" height="23.662" fill="white" transform="translate(0.112793 0.28125)"/>
</clipPath>
</defs>
</svg>
