<svg width="11" height="9" viewBox="0 0 11 9" fill="none" xmlns="http://www.w3.org/2000/svg">
    <path d="M9.2047 2C8.37743 2 7.7047 2.67291 7.7047 3.5C7.7047 3.70709 7.87242 3.875 8.0797 3.875C8.28698 3.875 8.4547 3.70709 8.4547 3.5C8.4547 3.08635 8.79124 2.75 9.2047 2.75C9.61816 2.75 9.9547 3.08635 9.9547 3.5C9.9547 3.91365 9.61816 4.25 9.2047 4.25H0.609375C0.402094 4.25 0.234375 4.41791 0.234375 4.625C0.234375 4.83209 0.402094 5 0.609375 5H9.2047C10.032 5 10.7047 4.32709 10.7047 3.5C10.7047 2.67291 10.032 2 9.2047 2Z" fill="#2399F8" fill-opacity="0.7"/>
    <path d="M5.25 0C4.42273 0 3.75 0.672914 3.75 1.5C3.75 1.70709 3.91772 1.875 4.125 1.875C4.33228 1.875 4.5 1.70709 4.5 1.5C4.5 1.08635 4.83654 0.75 5.25 0.75C5.66346 0.75 6 1.08635 6 1.5C6 1.91365 5.66346 2.25 5.25 2.25H0.375C0.167719 2.25 0 2.41791 0 2.625C0 2.83209 0.167719 3 0.375 3H5.25C6.07727 3 6.75 2.32709 6.75 1.5C6.75 0.672914 6.07727 0 5.25 0Z" fill="#2399F8" fill-opacity="0.7"/>
    <path d="M5.25 6H0.375C0.167719 6 0 6.16791 0 6.375C0 6.58209 0.167719 6.75 0.375 6.75H5.25C5.66346 6.75 6 7.08635 6 7.5C6 7.91365 5.66346 8.25 5.25 8.25C4.83654 8.25 4.5 7.91365 4.5 7.5C4.5 7.29291 4.33228 7.125 4.125 7.125C3.91772 7.125 3.75 7.29291 3.75 7.5C3.75 8.32709 4.42273 9 5.25 9C6.07727 9 6.75 8.32709 6.75 7.5C6.75 6.67291 6.07727 6 5.25 6Z" fill="#2399F8" fill-opacity="0.7"/>
</svg>
