<svg width="31" height="25" viewBox="0 0 31 25" fill="none" xmlns="http://www.w3.org/2000/svg"><path d="M21.204 14.514c-.098 0-.195-.002-.292-.006L.78 14.514a.641.641 0 1 1 0-1.283l20.162-.006a5.484 5.484 0 0 0 5.741-5.472 5.484 5.484 0 0 0-5.478-5.477 5.484 5.484 0 0 0-5.044 7.616.642.642 0 1 1-1.18.503A6.768 6.768 0 0 1 21.204.994a6.769 6.769 0 0 1 6.761 6.76 6.77 6.77 0 0 1-6.761 6.76zm9.79 5.754a4.656 4.656 0 0 0-4.825-4.647L.78 15.617a.641.641 0 1 0 0 1.283l25.418.003.146-.003a3.372 3.372 0 0 1 3.368 3.368 3.372 3.372 0 0 1-3.368 3.369 3.372 3.372 0 0 1-3.102-4.684.642.642 0 0 0-1.18-.503 4.656 4.656 0 0 0 4.283 6.469 4.656 4.656 0 0 0 4.65-4.65zM.778 12.008l7.52-.002.147.002c2.051 0 3.72-1.67 3.72-3.72a3.724 3.724 0 0 0-3.72-3.72 3.725 3.725 0 0 0-3.426 5.174.641.641 0 1 0 1.18-.503A2.44 2.44 0 0 1 8.444 5.85a2.44 2.44 0 0 1 2.438 2.438 2.44 2.44 0 0 1-2.437 2.437l-.133-.002-7.534.002a.642.642 0 1 0 0 1.283zm9.73 6.844a.641.641 0 0 0-.64-.642H.777a.641.641 0 1 0 0 1.283h9.09a.641.641 0 0 0 .64-.641z" fill="#36B1A1"/></svg>