<?xml version="1.0" encoding="utf-8"?>
<svg width="121px" height="45px" viewBox="0 0 121 45" fill="none" xmlns="http://www.w3.org/2000/svg">
  <g transform="matrix(0.991667, 0, 0, 0.991667, -38.666668, -17.842562)">
    <rect x="40" y="18.8926" width="120" height="42.8572" rx="4" style="fill: rgb(255, 255, 255);"/>
  </g>
  <path d="M 41.217 16.475 L 42.794 16.475 L 42.794 17.709 C 42.391 18.018 41.834 18.198 41.337 18.198 C 40.154 18.198 39.16 17.169 39.16 15.944 C 39.16 14.727 40.154 13.698 41.337 13.698 C 41.946 13.698 42.64 13.972 43.043 14.409 L 43.651 13.827 C 43.094 13.252 42.168 12.901 41.337 12.901 C 39.683 12.901 38.268 14.289 38.268 15.944 C 38.268 17.598 39.683 18.995 41.337 18.995 C 42.168 18.995 43.094 18.635 43.651 18.069 L 43.651 15.721 L 41.217 15.721 L 41.217 16.475 Z" fill="#2399F8"/>
  <path d="M 46.884 18.241 C 46.121 18.241 45.581 17.709 45.47 16.972 L 48.958 16.972 C 48.958 15.387 48.178 14.358 46.824 14.358 C 45.598 14.358 44.613 15.335 44.613 16.664 C 44.613 18.027 45.658 18.995 46.893 18.995 C 47.518 18.995 48.29 18.729 48.684 18.309 L 48.153 17.761 C 47.887 18.035 47.347 18.241 46.884 18.241 Z M 46.858 15.112 C 47.621 15.112 48.041 15.609 48.135 16.295 L 45.478 16.295 C 45.615 15.575 46.173 15.112 46.858 15.112 Z" fill="#2399F8"/>
  <path d="M 52.016 18.095 C 51.922 18.189 51.75 18.258 51.562 18.258 C 51.313 18.258 51.108 18.035 51.108 17.727 L 51.108 15.181 L 52.153 15.181 L 52.153 14.461 L 51.108 14.461 L 51.108 13.244 L 50.276 13.244 L 50.276 14.461 L 49.608 14.461 L 49.608 15.181 L 50.276 15.181 L 50.276 17.787 C 50.276 18.498 50.756 18.995 51.442 18.995 C 51.759 18.995 52.085 18.875 52.325 18.678 L 52.016 18.095 Z" fill="#2399F8"/>
  <path d="M 56.062 13.724 C 56.336 13.724 56.568 13.484 56.568 13.209 C 56.568 12.944 56.336 12.704 56.062 12.704 C 55.771 12.704 55.548 12.944 55.548 13.209 C 55.548 13.484 55.771 13.724 56.062 13.724 Z M 55.634 18.892 L 56.482 18.892 L 56.482 14.461 L 55.634 14.461 L 55.634 18.892 Z" fill="#2399F8"/>
  <path d="M 59.784 18.095 C 59.69 18.189 59.518 18.258 59.33 18.258 C 59.081 18.258 58.875 18.035 58.875 17.727 L 58.875 15.181 L 59.921 15.181 L 59.921 14.461 L 58.875 14.461 L 58.875 13.244 L 58.044 13.244 L 58.044 14.461 L 57.375 14.461 L 57.375 15.181 L 58.044 15.181 L 58.044 17.787 C 58.044 18.498 58.524 18.995 59.21 18.995 C 59.527 18.995 59.853 18.875 60.093 18.678 L 59.784 18.095 Z" fill="#2399F8"/>
  <path d="M 66.264 18.995 C 67.919 18.995 69.307 17.598 69.307 15.944 C 69.307 14.289 67.919 12.901 66.264 12.901 C 64.61 12.901 63.204 14.289 63.204 15.944 C 63.204 17.598 64.61 18.995 66.264 18.995 Z M 66.264 18.198 C 65.09 18.198 64.096 17.169 64.096 15.944 C 64.096 14.727 65.09 13.698 66.264 13.698 C 67.439 13.698 68.424 14.727 68.424 15.944 C 68.424 17.169 67.439 18.198 66.264 18.198 Z" fill="#2399F8"/>
  <path d="M 72.595 14.358 C 71.995 14.358 71.455 14.667 71.189 15.104 L 71.189 14.461 L 70.341 14.461 L 70.341 18.892 L 71.189 18.892 L 71.189 16.021 C 71.258 15.498 71.789 15.095 72.407 15.095 C 73.007 15.095 73.427 15.558 73.427 16.218 L 73.427 18.892 L 74.258 18.892 L 74.258 16.072 C 74.258 15.069 73.572 14.358 72.595 14.358 Z" fill="#2399F8"/>
  <path d="M 42.453 26.783 L 44.373 26.783 L 44.373 28.043 C 43.905 28.379 43.329 28.571 42.765 28.571 C 41.361 28.571 40.173 27.347 40.173 25.907 C 40.173 24.479 41.361 23.255 42.765 23.255 C 43.521 23.255 44.325 23.615 44.817 24.179 L 46.101 23.027 C 45.273 22.163 44.001 21.647 42.765 21.647 C 40.377 21.647 38.349 23.591 38.349 25.907 C 38.349 28.223 40.377 30.179 42.765 30.179 C 44.001 30.179 45.273 29.663 46.101 28.799 L 46.101 25.403 L 42.453 25.403 L 42.453 26.783 Z" fill="#2399F8"/>
  <path d="M 50.591 30.179 C 52.427 30.179 53.963 28.691 53.963 26.927 C 53.963 25.163 52.427 23.687 50.591 23.687 C 48.743 23.687 47.195 25.163 47.195 26.927 C 47.195 28.691 48.743 30.179 50.591 30.179 Z M 50.591 28.703 C 49.655 28.703 48.875 27.887 48.875 26.927 C 48.875 25.967 49.655 25.163 50.591 25.163 C 51.515 25.163 52.295 25.967 52.295 26.927 C 52.295 27.887 51.515 28.703 50.591 28.703 Z" fill="#2399F8"/>
  <path d="M 58.196 30.179 C 60.032 30.179 61.568 28.691 61.568 26.927 C 61.568 25.163 60.032 23.687 58.196 23.687 C 56.348 23.687 54.8 25.163 54.8 26.927 C 54.8 28.691 56.348 30.179 58.196 30.179 Z M 58.196 28.703 C 57.26 28.703 56.48 27.887 56.48 26.927 C 56.48 25.967 57.26 25.163 58.196 25.163 C 59.12 25.163 59.9 25.967 59.9 26.927 C 59.9 27.887 59.12 28.703 58.196 28.703 Z" fill="#2399F8"/>
  <path d="M 67.242 23.831 L 67.242 24.671 C 66.822 24.083 66.03 23.687 65.19 23.687 C 63.63 23.687 62.442 24.899 62.442 26.627 C 62.442 28.355 63.63 29.579 65.19 29.579 C 66.006 29.579 66.75 29.219 67.242 28.619 L 67.242 29.303 C 67.242 30.107 66.522 30.623 65.394 30.623 C 64.674 30.623 63.954 30.395 63.546 30.035 L 62.934 31.271 C 63.546 31.751 64.578 32.099 65.67 32.099 C 67.626 32.099 69.006 30.971 69.006 29.375 L 69.006 23.831 L 67.242 23.831 Z M 65.742 28.103 C 64.866 28.103 64.242 27.491 64.242 26.627 C 64.242 25.763 64.866 25.163 65.742 25.163 C 66.618 25.163 67.242 25.763 67.242 26.627 C 67.242 27.491 66.618 28.103 65.742 28.103 Z" fill="#2399F8"/>
  <path d="M 70.547 30.035 L 72.299 30.035 L 72.299 21.647 L 70.547 21.647 L 70.547 30.035 Z" fill="#2399F8"/>
  <path d="M 76.756 28.631 C 76.024 28.631 75.484 28.175 75.28 27.503 L 79.756 27.503 C 79.756 25.163 78.616 23.687 76.672 23.687 C 74.86 23.687 73.48 25.043 73.48 26.915 C 73.48 28.823 74.92 30.179 76.768 30.179 C 77.68 30.179 78.748 29.795 79.3 29.219 L 78.184 28.079 C 77.848 28.403 77.248 28.631 76.756 28.631 Z M 76.744 25.235 C 77.452 25.235 77.908 25.631 78.076 26.243 L 75.304 26.243 C 75.532 25.619 76.084 25.235 76.744 25.235 Z" fill="#2399F8"/>
  <path d="M 84.341 30.035 L 86.105 30.035 L 86.105 27.359 L 88.049 27.359 C 89.837 27.359 91.157 26.207 91.157 24.575 C 91.157 22.943 89.837 21.791 88.049 21.791 L 84.341 21.791 L 84.341 30.035 Z M 86.105 25.739 L 86.105 23.411 L 87.857 23.411 C 88.733 23.411 89.333 23.867 89.333 24.575 C 89.333 25.283 88.733 25.739 87.857 25.739 L 86.105 25.739 Z" fill="#2399F8"/>
  <path d="M 92.215 30.035 L 93.967 30.035 L 93.967 21.647 L 92.215 21.647 L 92.215 30.035 Z" fill="#2399F8"/>
  <path d="M 98.268 23.687 C 97.404 23.687 96.552 23.927 95.676 24.371 L 96.264 25.535 C 96.756 25.283 97.296 25.091 97.872 25.091 C 98.892 25.091 99.3 25.667 99.3 26.327 L 99.3 26.447 C 98.772 26.243 98.22 26.135 97.716 26.135 C 96.276 26.135 95.136 26.975 95.136 28.199 C 95.136 29.387 96.156 30.179 97.476 30.179 C 98.148 30.179 98.856 29.915 99.3 29.411 L 99.3 30.035 L 100.992 30.035 L 100.992 26.327 C 100.992 24.707 99.888 23.687 98.268 23.687 Z M 97.872 28.967 C 97.272 28.967 96.828 28.655 96.828 28.151 C 96.828 27.647 97.332 27.275 97.968 27.275 C 98.448 27.275 98.904 27.359 99.3 27.503 L 99.3 28.079 C 99.18 28.655 98.544 28.967 97.872 28.967 Z" fill="#2399F8"/>
  <path d="M 103.885 32.195 C 104.857 32.195 105.649 31.559 106.117 30.347 L 108.661 23.831 L 106.873 23.831 L 105.325 28.187 L 103.693 23.831 L 101.881 23.831 L 104.461 30.095 L 104.245 30.551 C 104.113 30.779 103.849 30.887 103.513 30.887 C 103.309 30.887 102.997 30.779 102.697 30.611 L 102.325 31.811 C 102.745 32.039 103.369 32.195 103.885 32.195 Z" fill="#2399F8"/>
  <g filter="url(#filter1_ii_2329_8006)" transform="matrix(1, 0, 0, 1, -39, -18)">
    <path d="M51.5396 29.5186C51.2901 29.7826 51.1427 30.1923 51.1427 30.7229V49.6795C51.1427 50.2109 51.2901 50.6198 51.5396 50.8838L51.603 50.9455L62.2221 40.3263V40.2012V40.0761L51.603 29.4561L51.5396 29.5186Z" fill="url(#paint0_linear_2329_8006)"/>
    <path d="M65.7614 43.8673L62.2223 40.3264V40.2013V40.0761L65.7623 36.5361L65.842 36.5816L70.036 38.9644C71.2334 39.645 71.2334 40.7584 70.036 41.4398L65.842 43.8227L65.7614 43.8673Z" fill="url(#paint1_linear_2329_8006)"/>
    <g filter="url(#filter2_i_2329_8006)">
      <path d="M65.8415 43.8217L62.221 40.2012L51.5392 50.8837C51.9335 51.302 52.5858 51.3535 53.3204 50.9369L65.8415 43.8217Z" fill="url(#paint2_linear_2329_8006)"/>
    </g>
    <path d="M65.8415 36.5806L53.3204 29.4663C52.5858 29.0489 51.9335 29.1011 51.5392 29.5194L62.2218 40.202L65.8415 36.5806Z" fill="url(#paint3_linear_2329_8006)"/>
  </g>
  <defs>
    <filter id="filter1_ii_2329_8006" x="51.1427" y="29.1782" width="19.7914" height="22.0464" filterUnits="userSpaceOnUse" color-interpolation-filters="sRGB">
      <feFlood flood-opacity="0" result="BackgroundImageFix"/>
      <feBlend mode="normal" in="SourceGraphic" in2="BackgroundImageFix" result="shape"/>
      <feColorMatrix in="SourceAlpha" type="matrix" values="0 0 0 0 0 0 0 0 0 0 0 0 0 0 0 0 0 0 127 0" result="hardAlpha"/>
      <feOffset dy="-0.15"/>
      <feComposite in2="hardAlpha" operator="arithmetic" k2="-1" k3="1"/>
      <feColorMatrix type="matrix" values="0 0 0 0 0 0 0 0 0 0 0 0 0 0 0 0 0 0 0.12 0"/>
      <feBlend mode="normal" in2="shape" result="effect1_innerShadow_2329_8006"/>
      <feColorMatrix in="SourceAlpha" type="matrix" values="0 0 0 0 0 0 0 0 0 0 0 0 0 0 0 0 0 0 127 0" result="hardAlpha"/>
      <feOffset dy="0.15"/>
      <feComposite in2="hardAlpha" operator="arithmetic" k2="-1" k3="1"/>
      <feColorMatrix type="matrix" values="0 0 0 0 1 0 0 0 0 1 0 0 0 0 1 0 0 0 0.25 0"/>
      <feBlend mode="normal" in2="effect1_innerShadow_2329_8006" result="effect2_innerShadow_2329_8006"/>
    </filter>
    <filter id="filter2_i_2329_8006" x="51.5392" y="40.2012" width="14.3023" height="11.0234" filterUnits="userSpaceOnUse" color-interpolation-filters="sRGB">
      <feFlood flood-opacity="0" result="BackgroundImageFix"/>
      <feBlend mode="normal" in="SourceGraphic" in2="BackgroundImageFix" result="shape"/>
      <feColorMatrix in="SourceAlpha" type="matrix" values="0 0 0 0 0 0 0 0 0 0 0 0 0 0 0 0 0 0 127 0" result="hardAlpha"/>
      <feOffset dy="-0.15"/>
      <feComposite in2="hardAlpha" operator="arithmetic" k2="-1" k3="1"/>
      <feColorMatrix type="matrix" values="0 0 0 0 0 0 0 0 0 0 0 0 0 0 0 0 0 0 0.08 0"/>
      <feBlend mode="normal" in2="shape" result="effect1_innerShadow_2329_8006"/>
    </filter>
    <linearGradient id="paint0_linear_2329_8006" x1="61.2808" y1="30.5223" x2="46.8962" y2="44.9069" gradientUnits="userSpaceOnUse">
      <stop stop-color="#00A0FF"/>
      <stop offset="0.0066" stop-color="#00A1FF"/>
      <stop offset="0.2601" stop-color="#00BEFF"/>
      <stop offset="0.5122" stop-color="#00D2FF"/>
      <stop offset="0.7604" stop-color="#00DFFF"/>
      <stop offset="1" stop-color="#00E3FF"/>
    </linearGradient>
    <linearGradient id="paint1_linear_2329_8006" x1="71.5947" y1="40.2013" x2="50.8554" y2="40.2013" gradientUnits="userSpaceOnUse">
      <stop stop-color="#FFE000"/>
      <stop offset="0.4087" stop-color="#FFBD00"/>
      <stop offset="0.7754" stop-color="#FFA500"/>
      <stop offset="1" stop-color="#FF9C00"/>
    </linearGradient>
    <linearGradient id="paint2_linear_2329_8006" x1="63.8753" y1="42.1674" x2="44.368" y2="61.6747" gradientUnits="userSpaceOnUse">
      <stop stop-color="#FF3A44"/>
      <stop offset="1" stop-color="#C31162"/>
    </linearGradient>
    <linearGradient id="paint3_linear_2329_8006" x1="48.849" y1="23.209" x2="57.5596" y2="31.9195" gradientUnits="userSpaceOnUse">
      <stop stop-color="#32A071"/>
      <stop offset="0.0685" stop-color="#2DA771"/>
      <stop offset="0.4762" stop-color="#15CF74"/>
      <stop offset="0.8009" stop-color="#06E775"/>
      <stop offset="1" stop-color="#00F076"/>
    </linearGradient>
  </defs>
</svg>