<svg width="10" height="10" viewBox="0 0 10 10" fill="none" xmlns="http://www.w3.org/2000/svg">
    <path d="M8.64143 2.93707C8.45499 2.61797 8.25567 2.31629 8.0802 2.08756C7.82155 1.75037 7.66877 1.63086 7.49639 1.63086C7.32401 1.63086 7.17125 1.75037 6.91258 2.08756C6.77233 2.27039 6.61684 2.49992 6.46484 2.74762C7.04186 3.80245 7.75426 5.32565 7.75426 6.41602C7.75426 6.54354 7.74819 6.66964 7.73692 6.79427C8.67061 6.67571 9.39489 5.87634 9.39489 4.91096C9.39489 4.3154 8.92284 3.41862 8.64143 2.93707Z" fill="#2399F8" fill-opacity="0.7"/>
    <path d="M4.53665 0.815783C3.95923 0.063047 3.74214 0 3.58399 0C3.42585 0 3.20876 0.063047 2.63131 0.815783C2.27924 1.27475 1.87832 1.88178 1.50242 2.5251C1.05069 3.29817 0 5.22485 0 6.41601C0 8.39224 1.60778 10 3.58399 10C5.56021 10 7.16798 8.39224 7.16798 6.41601C7.16798 5.22485 6.1173 3.29817 5.66556 2.5251C5.28966 1.88178 4.88874 1.27475 4.53665 0.815783ZM2.26563 5.60544C2.26563 5.44407 2.39725 5.31247 2.5586 5.31247C2.71997 5.31247 2.85157 5.44409 2.85157 5.60544C2.85157 5.76681 2.71997 5.89841 2.5586 5.89841C2.39725 5.89843 2.26563 5.76681 2.26563 5.60544ZM3.17983 7.70195C3.12557 7.79593 3.0271 7.84849 2.92585 7.84849C2.87614 7.84849 2.82577 7.83584 2.77963 7.80918C2.63952 7.72828 2.59151 7.54912 2.67241 7.40898L3.98815 5.13003C4.06905 4.98991 4.24821 4.94185 4.38835 5.0228C4.52847 5.1037 4.57647 5.28286 4.49558 5.423L3.17983 7.70195ZM4.51175 7.55857C4.35038 7.55857 4.21878 7.42695 4.21878 7.2656C4.21878 7.10423 4.3504 6.97263 4.51175 6.97263C4.67311 6.97263 4.80472 7.10423 4.80472 7.2656C4.80472 7.42697 4.6731 7.55857 4.51175 7.55857Z" fill="#2399F8" fill-opacity="0.7"/>
</svg>
