<svg width="12" height="8" viewBox="0 0 12 8" fill="none" xmlns="http://www.w3.org/2000/svg">
    <path d="M8.79729 1.29149C8.98006 1.41169 9.22039 1.35256 9.33414 1.15944C9.4579 0.949281 9.67118 0.823814 9.90462 0.823814C10.2757 0.823814 10.5775 1.14343 10.5775 1.53628C10.5775 1.92912 10.2757 2.24874 9.90462 2.24874H3.55968C3.34443 2.24874 3.16992 2.43316 3.16992 2.66064C3.16992 2.88813 3.34443 3.07255 3.55968 3.07255H9.90462C10.7055 3.07255 11.357 2.38338 11.357 1.53628C11.357 0.689175 10.7055 0 9.90462 0C9.40004 0 8.93937 0.270705 8.67233 0.724132C8.5586 0.917262 8.61455 1.1713 8.79729 1.29149Z" fill="#5C7CEC"/>
    <path d="M0.335521 6.13574H6.32519C6.62511 6.13574 6.8691 6.39455 6.8691 6.71266C6.8691 7.03076 6.62511 7.28957 6.32519 7.28957C6.13652 7.28957 5.96413 7.18798 5.86408 7.01779C5.76617 6.85126 5.55927 6.80025 5.40193 6.90393C5.24462 7.0076 5.19646 7.22665 5.29438 7.3932C5.51777 7.77314 5.90311 7.99997 6.32519 7.99997C6.99512 7.99997 7.54014 7.42247 7.54014 6.71263C7.54014 6.0028 6.99512 5.42529 6.32519 5.42529H0.335521C0.150224 5.42529 0 5.58433 0 5.78051C0 5.97673 0.150224 6.13574 0.335521 6.13574Z" fill="#5C7CEC"/>
    <path d="M9.96136 6.07668C9.74216 6.07668 9.54193 5.95888 9.42573 5.76155C9.312 5.56842 9.07165 5.5093 8.88888 5.62949C8.70614 5.74968 8.65019 6.00372 8.76393 6.19685C9.0234 6.63743 9.47105 6.9005 9.96136 6.9005C10.7396 6.9005 11.3727 6.23082 11.3727 5.40769C11.3727 4.58457 10.7396 3.91489 9.96136 3.91489H3.55968C3.34443 3.91489 3.16992 4.09931 3.16992 4.32679C3.16992 4.55428 3.34443 4.7387 3.55968 4.7387H9.96136C10.3098 4.7387 10.5932 5.03882 10.5932 5.40769C10.5932 5.77657 10.3098 6.07668 9.96136 6.07668Z" fill="#5C7CEC"/>
    <path d="M0.29354 1.37921H5.59145C5.75356 1.37921 5.88499 1.19395 5.88499 0.965424C5.88499 0.736902 5.75356 0.551636 5.59145 0.551636H0.29354C0.131428 0.551636 0 0.736902 0 0.965424C0 1.19395 0.131428 1.37921 0.29354 1.37921Z" fill="#5C7CEC"/>
    <path d="M0.295996 3.03445C0.132527 3.03445 0 3.21972 0 3.44824C0 3.67676 0.132527 3.86203 0.295996 3.86203H3.10626C3.26973 3.86203 3.40226 3.67676 3.40226 3.44824C3.40226 3.21972 3.26973 3.03445 3.10626 3.03445H0.295996Z" fill="#5C7CEC"/>
</svg>
