<svg width="11" height="11" viewBox="0 0 11 11" fill="none" xmlns="http://www.w3.org/2000/svg">
    <path d="M5.49997 8.48632C7.14926 8.48632 8.48627 7.1493 8.48627 5.49999C8.48627 3.85069 7.14926 2.51367 5.49997 2.51367C3.85068 2.51367 2.51367 3.85069 2.51367 5.49999C2.51367 7.1493 3.85068 8.48632 5.49997 8.48632Z" fill="#FE9142"/>
    <path d="M5.5 1.75405C5.67797 1.75405 5.82226 1.60976 5.82226 1.43178V0.322265C5.82226 0.144289 5.67797 0 5.5 0C5.32202 0 5.17773 0.144289 5.17773 0.322265V1.43178C5.17773 1.60976 5.32202 1.75405 5.5 1.75405Z" fill="#FE9142"/>
    <path d="M10.6784 5.17773H9.56884C9.39087 5.17773 9.24658 5.32202 9.24658 5.5C9.24658 5.67798 9.39087 5.82226 9.56884 5.82226H10.6784C10.8563 5.82226 11.0006 5.67798 11.0006 5.5C11.0006 5.32202 10.8563 5.17773 10.6784 5.17773Z" fill="#FE9142"/>
    <path d="M5.5 9.24585C5.32202 9.24585 5.17773 9.39014 5.17773 9.56811V10.6776C5.17773 10.8556 5.32202 10.9999 5.5 10.9999C5.67797 10.9999 5.82226 10.8556 5.82226 10.6776V9.56811C5.82226 9.39014 5.67797 9.24585 5.5 9.24585Z" fill="#FE9142"/>
    <path d="M1.75403 5.5C1.75403 5.32202 1.60974 5.17773 1.43177 5.17773H0.322262C0.144288 5.17773 0 5.32202 0 5.5C0 5.67798 0.144288 5.82226 0.322262 5.82226H1.43177C1.60974 5.82226 1.75403 5.67798 1.75403 5.5Z" fill="#FE9142"/>
    <path d="M8.37452 2.94569C8.457 2.94569 8.53947 2.91423 8.60238 2.85128L9.38692 2.06674C9.51277 1.94088 9.51277 1.73685 9.38692 1.61099C9.26108 1.48514 9.05703 1.48514 8.93117 1.61099L8.14664 2.39554C8.02078 2.52139 8.02078 2.72543 8.14664 2.85128C8.20959 2.91423 8.29206 2.94569 8.37452 2.94569Z" fill="#FE9142"/>
    <path d="M8.60238 8.14882C8.47655 8.02298 8.27249 8.02298 8.14664 8.14882C8.02078 8.27467 8.02078 8.47871 8.14664 8.60457L8.93119 9.38911C8.99412 9.45204 9.0766 9.48349 9.15906 9.48349C9.24151 9.48349 9.32401 9.45201 9.38692 9.38909C9.51277 9.26323 9.51277 9.05919 9.38692 8.93334L8.60238 8.14882Z" fill="#FE9142"/>
    <path d="M2.39553 8.14859L1.61099 8.93313C1.48514 9.05899 1.48514 9.26303 1.61099 9.38888C1.67392 9.45181 1.7564 9.48328 1.83885 9.48328C1.92131 9.48328 2.00381 9.45183 2.06671 9.38888L2.85125 8.60434C2.97711 8.47848 2.97711 8.27445 2.85125 8.14859C2.72544 8.02274 2.52136 8.02274 2.39553 8.14859Z" fill="#FE9142"/>
    <path d="M2.39555 2.85128C2.45848 2.91421 2.54096 2.94569 2.62341 2.94569C2.70587 2.94569 2.78837 2.91423 2.85127 2.85128C2.97713 2.72543 2.97713 2.52139 2.85127 2.39554L2.06674 1.61099C1.9409 1.48514 1.73685 1.48514 1.61099 1.61099C1.48514 1.73685 1.48514 1.94088 1.61099 2.06674L2.39555 2.85128Z" fill="#FE9142"/>
    <path d="M6.93596 2.04098C6.97642 2.05778 7.01829 2.06573 7.05952 2.06573C7.18583 2.06573 7.30573 1.99099 7.35723 1.86705L7.783 0.842501C7.8513 0.678146 7.77344 0.489535 7.60909 0.421236C7.44475 0.352959 7.25614 0.430775 7.18782 0.595152L6.76205 1.6197C6.69377 1.78407 6.77163 1.97268 6.93596 2.04098Z" fill="#FE9142"/>
    <path d="M10.4037 7.18931L9.37912 6.76353C9.21475 6.69523 9.02616 6.77307 8.95786 6.93745C8.88957 7.1018 8.96742 7.29041 9.13178 7.35871L10.1563 7.78449C10.1968 7.80129 10.2386 7.80924 10.2799 7.80924C10.4062 7.80924 10.5261 7.73449 10.5776 7.61055C10.6459 7.44622 10.568 7.25761 10.4037 7.18931Z" fill="#FE9142"/>
    <path d="M4.06027 8.95908C3.89589 8.8908 3.70731 8.96862 3.63901 9.13299L3.21323 10.1575C3.14494 10.3219 3.22279 10.5105 3.38715 10.5788C3.4276 10.5956 3.46948 10.6036 3.5107 10.6036C3.63701 10.6036 3.75691 10.5288 3.80841 10.4049L4.23418 9.38032C4.30246 9.21599 4.2246 9.02738 4.06027 8.95908Z" fill="#FE9142"/>
    <path d="M0.59418 3.81059L1.61872 4.23637C1.65917 4.25317 1.70104 4.26112 1.74227 4.26112C1.86858 4.26112 1.98848 4.18638 2.03998 4.06243C2.10828 3.89808 2.03042 3.70947 1.86606 3.64117L0.841527 3.21541C0.677173 3.14716 0.488564 3.22497 0.420266 3.38933C0.351967 3.55368 0.429826 3.7423 0.59418 3.81059Z" fill="#FE9142"/>
    <path d="M8.96197 4.07038C9.01329 4.19467 9.13339 4.26975 9.25997 4.26975C9.30094 4.26975 9.3426 4.26189 9.38282 4.24528L10.4083 3.82189C10.5728 3.75398 10.6512 3.56556 10.5833 3.40103C10.5153 3.23651 10.3269 3.15822 10.1624 3.22613L9.13689 3.64952C8.97236 3.71746 8.89406 3.90587 8.96197 4.07038Z" fill="#FE9142"/>
    <path d="M7.34925 9.13735C7.28134 8.97283 7.09288 8.89456 6.92839 8.96245C6.76387 9.03036 6.68556 9.21878 6.75347 9.38331L7.17686 10.4089C7.22818 10.5331 7.34828 10.6082 7.47487 10.6082C7.51584 10.6082 7.55749 10.6004 7.59771 10.5838C7.76224 10.5159 7.84055 10.3274 7.77264 10.1629L7.34925 9.13735Z" fill="#FE9142"/>
    <path d="M2.0369 6.92937C1.96899 6.76486 1.78062 6.68651 1.61605 6.75447L0.590501 7.17786C0.425997 7.24577 0.347666 7.43419 0.415577 7.59871C0.466903 7.723 0.586978 7.79809 0.713584 7.79809C0.754533 7.79809 0.796212 7.79022 0.83643 7.77362L1.86198 7.35023C2.0265 7.28229 2.10481 7.09387 2.0369 6.92937Z" fill="#FE9142"/>
    <path d="M3.64903 1.86248C3.70035 1.98677 3.82045 2.06186 3.94703 2.06186C3.988 2.06186 4.02966 2.05399 4.06988 2.03739C4.23441 1.96948 4.31272 1.78106 4.2448 1.61653L3.82142 0.590976C3.75348 0.426449 3.56502 0.34816 3.40056 0.416072C3.23604 0.483984 3.15773 0.672423 3.22564 0.836928L3.64903 1.86248Z" fill="#FE9142"/>
</svg>

