<svg width="5" height="11" viewBox="0 0 5 11" fill="none" xmlns="http://www.w3.org/2000/svg">
    <path d="M2.39562 8.35742C2.21194 8.35742 2.0625 8.50199 2.0625 8.67969C2.0625 8.85738 2.21194 9.00195 2.39562 9.00195C2.5793 9.00195 2.72873 8.85738 2.72873 8.67969C2.72873 8.50199 2.57932 8.35742 2.39562 8.35742Z" fill="#2B2A29"/>
    <path d="M3.84194 6.8264V1.39648C3.84194 0.626463 3.19439 0 2.39844 0C1.60249 0 0.954933 0.626463 0.954933 1.39648V6.8264C0.353747 7.26408 0 7.94432 0 8.67969C0 9.9591 1.07592 11 2.39844 11C3.72095 11 4.79687 9.9591 4.79687 8.67969C4.79687 7.94432 4.44315 7.26408 3.84194 6.8264ZM2.39844 9.64648C1.8474 9.64648 1.39909 9.21278 1.39909 8.67969C1.39909 8.25956 1.6776 7.90137 2.06532 7.76834V1.39648C2.06532 1.21851 2.21447 1.07422 2.39844 1.07422C2.58241 1.07422 2.73155 1.21851 2.73155 1.39648V7.76832C3.11928 7.90135 3.39779 8.25956 3.39779 8.67967C3.39779 9.21278 2.9495 9.64648 2.39844 9.64648V9.64648Z" fill="#2B2A29"/>
</svg>
