<svg width="24" height="25" viewBox="0 0 24 25" fill="none" xmlns="http://www.w3.org/2000/svg">
<path fill-rule="evenodd" clip-rule="evenodd" d="M12.0561 0.28125C5.52201 0.28125 0.225098 5.60171 0.225098 12.1648C0.225098 18.7279 5.52201 24.0484 12.0561 24.0484C18.5902 24.0484 23.8871 18.7279 23.8871 12.1648C23.8871 5.60171 18.5902 0.28125 12.0561 0.28125ZM13.0194 15.9161C12.9027 16.0396 12.6749 16.0646 12.6749 16.0646H11.9207C11.9207 16.0646 10.2566 16.1632 8.79071 14.6588C7.19208 13.0175 5.78048 9.76105 5.78048 9.76105C5.78048 9.76105 5.699 9.54745 5.78727 9.4446C5.88664 9.32837 6.1576 9.32106 6.1576 9.32106L7.96054 9.3095C7.96054 9.3095 8.13027 9.33689 8.25187 9.42513C8.35248 9.49816 8.40865 9.63387 8.40865 9.63387C8.40865 9.63387 8.69998 10.3605 9.08575 11.0177C9.83939 12.3012 10.19 12.5818 10.4455 12.4442C10.8183 12.244 10.7066 10.6301 10.7066 10.6301C10.7066 10.6301 10.7134 10.0446 10.519 9.78357C10.3684 9.58153 10.0844 9.5225 9.95913 9.50607C9.85729 9.49268 10.0239 9.26021 10.24 9.15614C10.5646 8.99974 11.1374 8.99061 11.8145 8.99731C12.3423 9.00278 12.4941 9.03504 12.7003 9.08433C13.1787 9.19817 13.1638 9.56299 13.1315 10.3504C13.1219 10.5858 13.1107 10.8591 13.1107 11.1748C13.1107 11.2457 13.1086 11.3213 13.1065 11.3991C13.0953 11.8025 13.0825 12.2644 13.352 12.4363C13.4903 12.5239 13.8279 12.4491 14.6729 11.0348C15.0735 10.3641 15.3735 9.57605 15.3735 9.57605C15.3735 9.57605 15.4395 9.43547 15.5414 9.37523C15.6457 9.31376 15.7864 9.33263 15.7864 9.33263L17.6838 9.32106C17.6838 9.32106 18.2541 9.25351 18.3461 9.50789C18.443 9.77384 18.1331 10.3958 17.3579 11.4145C16.6223 12.3814 16.2645 12.7372 16.2975 13.052C16.3216 13.2819 16.5542 13.4899 17.0005 13.8981C17.9324 14.7511 18.1822 15.1999 18.2422 15.3078C18.2472 15.3167 18.2508 15.3233 18.2535 15.3276C18.6713 16.011 17.7899 16.0646 17.7899 16.0646L16.1043 16.0877C16.1043 16.0877 15.7426 16.1583 15.2661 15.8357C15.0165 15.6669 14.7726 15.3912 14.5402 15.1286C14.1855 14.7275 13.8577 14.357 13.578 14.4446C13.1082 14.5918 13.1224 15.5893 13.1224 15.5893C13.1224 15.5893 13.1261 15.8029 13.0194 15.9161Z" fill="white"/>
</svg>
